<?xml version="1.0" standalone="no"?>
<!DOCTYPE svg PUBLIC "-//W3C//DTD SVG 20010904//EN"
 "http://www.w3.org/TR/2001/REC-SVG-20010904/DTD/svg10.dtd">
<svg version="1.0" xmlns="http://www.w3.org/2000/svg"
 width="1184.000000pt" height="864.000000pt" viewBox="0 0 1184.000000 864.000000"
 preserveAspectRatio="xMidYMid meet">

<g transform="translate(0.000000,864.000000) scale(0.100000,-0.100000)"
fill="#000000" stroke="none">
<path d="M8072 5928 c-17 -13 -72 -58 -123 -102 -86 -72 -94 -77 -106 -60 -7
10 -13 21 -13 25 0 19 -35 17 -57 -3 -19 -17 -23 -30 -20 -53 9 -60 -10 -87
-235 -327 -139 -149 -261 -252 -288 -243 -10 3 -21 1 -25 -5 -3 -5 -17 -10
-31 -10 -19 0 -24 -5 -24 -24 0 -66 -440 -648 -544 -719 -65 -45 -242 -127
-491 -227 -126 -50 -317 -128 -423 -172 -106 -43 -260 -103 -342 -133 -152
-55 -551 -178 -695 -214 -151 -38 -516 -92 -610 -90 -48 1 -198 -15 -241 -26
-13 -3 -33 -28 -54 -66 -27 -52 -31 -67 -25 -104 6 -41 9 -45 40 -51 19 -3 74
1 122 10 49 9 156 23 238 31 328 34 466 60 735 139 458 134 710 218 855 286
98 46 500 209 605 245 104 37 240 92 315 130 124 62 267 78 500 54 55 -5 181
-14 280 -19 160 -8 241 -20 298 -45 13 -6 16 -4 11 9 -5 14 5 16 80 16 l86 0
0 76 c0 94 -10 116 -49 108 -16 -4 -118 1 -228 10 -109 8 -261 20 -338 26
-243 18 -341 39 -354 73 -10 26 -2 43 57 121 68 89 106 123 146 130 27 5 36
12 36 27 0 12 -8 23 -20 26 -11 3 -20 8 -20 12 0 6 41 59 158 205 63 79 236
234 290 258 23 10 42 26 42 34 0 20 226 280 286 330 86 72 235 175 276 191 26
10 44 26 53 47 8 17 22 42 32 55 l17 23 -50 -6 c-36 -5 -57 -3 -79 8 -38 20
-36 20 -73 -6z"/>
</g>
</svg>
