<svg version="1.1" id="Layer_1" xmlns="http://www.w3.org/2000/svg" xmlns:xlink="http://www.w3.org/1999/xlink" x="0px" y="0px"
	 width="100%" viewBox="0 0 544 544" enable-background="new 0 0 544 544" xml:space="preserve">
<path fill="#000000" opacity="1.000000" stroke="none" 
	d="
M237.499451,484.167847 
	C233.693085,484.216248 233.572662,482.078979 233.577347,479.461365 
	C233.637558,445.795654 233.630478,412.129791 233.623901,378.463989 
	C233.616714,341.631409 233.758179,304.797455 233.459534,267.967163 
	C233.384262,258.685822 233.609161,249.312790 231.825272,240.089340 
	C228.545486,223.131393 214.875931,210.093582 197.728470,207.295502 
	C187.911179,205.693558 178.148239,205.649033 168.440170,207.632004 
	C165.137894,208.306503 163.888626,207.377762 163.384537,204.212173 
	C162.784027,200.441071 161.849365,196.720398 160.987411,192.994553 
	C160.258286,189.842728 161.034698,188.196350 164.586914,187.400192 
	C172.986313,185.517670 181.453079,185.674118 189.941269,185.668289 
	C190.749634,185.667740 191.557938,185.571289 193.054764,185.475098 
	C190.949203,181.638916 188.988098,178.238358 187.186050,174.755493 
	C172.572220,146.510803 176.802933,114.401772 198.216156,90.792084 
	C205.145828,83.151596 205.157745,83.139908 212.493790,90.606514 
	C222.909134,101.207245 234.296555,110.702232 245.855743,120.003250 
	C246.485565,120.510033 247.065170,121.175705 248.613861,120.685005 
	C248.761429,113.670059 249.015991,106.433083 250.574203,99.305351 
	C253.472519,86.047577 253.354462,86.021774 265.878052,90.539627 
	C274.260071,93.563423 274.121735,93.528076 272.020630,101.752525 
	C267.674713,118.764053 270.293762,134.802567 279.435181,149.720093 
	C283.737213,156.740417 284.862610,156.788391 291.011505,151.796646 
	C301.096466,143.609543 311.689880,136.059402 321.188232,127.134003 
	C326.301636,122.329025 331.192230,117.372696 335.611969,111.919579 
	C339.661530,106.923241 340.181793,106.946815 344.171478,111.649254 
	C358.249420,128.242218 367.091064,146.693710 364.463562,169.192444 
	C364.394501,169.784012 364.708618,170.420319 364.945984,171.498978 
	C373.661743,168.052887 382.087433,164.641037 390.896057,162.238586 
	C394.913452,161.142883 396.360413,162.062683 397.008881,165.831039 
	C397.656952,169.596954 398.373505,173.371841 399.407837,177.044861 
	C400.498535,180.918045 398.954468,182.317230 395.314392,183.127197 
	C383.992950,185.646347 373.424591,190.051010 363.907654,196.771637 
	C343.579498,211.126877 332.424622,231.088699 328.301605,255.301514 
	C326.843872,263.862122 326.525116,272.544647 326.471741,281.181091 
	C326.287292,311.012665 326.192810,340.848663 326.524872,370.677856 
	C326.688110,385.338654 327.628662,400.041718 325.429596,414.565887 
	C320.139648,449.504211 299.628204,471.228760 266.137756,481.250671 
	C256.926514,484.007111 247.473343,484.479523 237.499451,484.167847 
M305.603455,320.500092 
	C305.603455,300.465668 305.603455,280.431244 305.603455,260.396790 
	C296.894226,269.501740 289.990784,279.450134 283.891785,289.937256 
	C269.526550,314.637878 262.035431,341.545776 258.049072,369.674927 
	C253.892868,399.002441 254.492661,428.477844 254.335342,457.946350 
	C254.320389,460.748352 255.253174,461.988251 258.242157,461.272034 
	C272.142853,457.941284 283.757172,451.122162 292.661377,439.710114 
	C303.348206,426.013336 305.410614,409.982300 305.535919,393.464813 
	C305.717865,369.477783 305.595947,345.488464 305.603455,320.500092 
M254.991211,273.500000 
	C254.991211,281.726715 254.991211,289.953400 254.991211,298.484314 
	C256.979218,297.704254 257.192108,296.456573 257.628906,295.459564 
	C266.394440,275.452942 278.535278,257.632385 292.725250,241.133942 
	C304.880829,227.000900 318.478302,214.162582 330.040588,199.493195 
	C336.537292,191.250656 341.253967,182.172028 343.167786,171.807770 
	C345.193878,160.835556 343.482544,150.475830 337.813934,140.478073 
	C336.399567,141.382736 335.309692,141.863129 334.494171,142.633820 
	C321.171326,155.224258 306.280823,165.984421 292.741730,178.305038 
	C277.669800,192.020584 265.167877,207.517075 258.894714,227.465286 
	C254.236694,242.277466 255.110214,257.390167 254.991211,273.500000 
M243.431244,208.158386 
	C249.557434,196.089767 256.687347,184.687500 266.137604,174.910980 
	C268.675629,172.285339 268.480255,169.967468 266.312866,167.516647 
	C264.553497,165.527161 262.620605,163.690247 260.749786,161.800369 
	C246.913040,147.822510 231.289566,135.892258 216.361206,123.168045 
	C213.294800,120.554390 210.731857,117.161255 206.413315,115.576088 
	C202.356598,122.489685 199.746948,129.601517 199.384384,137.361130 
	C198.599625,154.156464 205.812592,167.890076 216.137512,180.434708 
	C224.167892,190.191498 234.307068,198.062332 241.315247,208.723526 
	C241.912552,209.632187 242.585983,209.712708 243.431244,208.158386 
z"/>
<path fill="#000000" opacity="1.000000" stroke="none" 
	d="
M297.050781,88.046799 
	C303.627502,81.088875 312.130707,78.573166 320.478943,75.780327 
	C323.301941,74.835915 324.946991,75.819633 325.218048,78.915199 
	C327.291962,102.600807 314.944000,122.081497 291.083923,127.232719 
	C285.702759,128.394470 285.009735,127.639847 284.646454,122.319221 
	C283.749725,109.185555 287.377502,97.717888 297.050781,88.046799 
z"/>
</svg>